<svg width="14" height="14" viewBox="0 0 14 14" fill="none" xmlns="http://www.w3.org/2000/svg">
<path d="M12.7143 0.333313H1.28278C0.758969 0.333313 0.333374 0.764861 0.333374 1.29462V12.7053C0.333374 13.2351 0.758969 13.6666 1.28278 13.6666H12.7143C13.2381 13.6666 13.6667 13.2351 13.6667 12.7053V1.29462C13.6667 0.764861 13.2381 0.333313 12.7143 0.333313ZM4.36314 11.7619H2.38695V5.39879H4.36611V11.7619H4.36314ZM3.37504 4.52974C2.74111 4.52974 2.22921 4.01486 2.22921 3.38391C2.22921 2.75296 2.74111 2.23808 3.37504 2.23808C4.00599 2.23808 4.52087 2.75296 4.52087 3.38391C4.52087 4.01784 4.00897 4.52974 3.37504 4.52974V4.52974ZM11.7709 11.7619H9.79468V8.66665C9.79468 7.92855 9.7798 6.97915 8.7679 6.97915C7.73814 6.97915 7.5804 7.78272 7.5804 8.61308V11.7619H5.60421V5.39879H7.50004V6.26784H7.52683C7.79171 5.76784 8.43754 5.24105 9.39885 5.24105C11.3989 5.24105 11.7709 6.5595 11.7709 8.27379V11.7619V11.7619Z" fill="white"/>
</svg>
